<svg xmlns="http://www.w3.org/2000/svg" width="213.016" height="28.168" viewBox="0 0 213.016 28.168"><g fill="#FFF"><path fill-rule="evenodd" clip-rule="evenodd" d="M14.042.042c7.755 0 14.042 6.287 14.042 14.043 0 7.756-6.287 14.041-14.042 14.041S0 21.841 0 14.085 6.287.042 14.042.042zm7.915 14.121c.063-.057.014.02.062-.092l.114-.396c.609-.02 1.03-.065 1.523-.262l1.014-.695c-.336-.004-.689.087-1.235.002l-1.107-.231c.091-.059.232-.06.361-.079.133-.021.248-.038.378-.068.256-.06.442-.117.657-.216l.851-.832c-.388.152-.739.217-1.264.223-.254.003-1.179-.013-1.264-.239-.101-.27-.1-.524-.312-1.029a5.175 5.175 0 0 0-.49-.906 4.96 4.96 0 0 0-1.428-1.408l-2.331-.653c.146-.14.695-.251.894-.304 1.039-.277.949-.657.697-.728-.321-.09-1.104.205-1.455.312l.628-.666c-.653.062-1.081.388-1.57.688l.204-.5c-.616.207-1.728 1.675-2.035 2.263l-1.305 2.861c-.111-.046-.882-.837-1.472-1.188-.515-.308-1.202-.636-1.793-.909C8.856 8.45 7.84 8.049 6.384 7.516c-.073 1.279.748 1.982 1.772 2.67l-1.248.164c.021.546.443 1.115.763 1.388.582.497.887.499 1.421.701l.11.057c-.861.149-.604.054-1.352.538.009.341.75 1.065 1.309 1.188l1.245.162c-.086.08-.221.135-.322.199a.999.999 0 0 0-.271.24c-.172.209-.261.445-.148.732l1.441.656c-.077.154-.547.531-.706.641-.862.598-1.832 1.018-3.067 1.072a5.887 5.887 0 0 1-2.399-.398c-.774-.309-1.091-.568-1.682-1.023.173.297.566.709.806.963 2.259 2.396 5.915 3.719 9.736 3.037 2.333-.416 3.836-1.223 5.203-2.221.225-.164.762-.646.955-.846.594-.611 1.123-1.268 1.509-2.025.115-.228.516-1.017.498-1.248zM88.015.042c7.755 0 14.042 6.287 14.042 14.043 0 7.756-6.287 14.041-14.042 14.041s-14.042-6.285-14.042-14.041S80.259.042 88.015.042zm-2.08 14.053c.041.051.018.408.018.477l.002 7.559h3.277c.02-1.99 0-4.031 0-6.031 0-.027-.006-1.936.002-1.977.006-.025.007-.021.014-.033.004 0 2.085.018 2.158 0l.037-.012.288-2.758h-2.487c-.01-.407.002-.826.002-1.235 0-.373-.008-.833.213-1.038l2.259-.228-.003-2.769c-.428-.025-.935-.002-1.371-.002-.454 0-.914-.01-1.359.021-.851.056-1.538.31-2.035.732-.72 1.154-.999.163-1.004 4.519l-1.646.001.003 2.772 1.632.002z"/><path d="M198.682 11.373c2.563-.03 2.533-4.102-.208-3.909-2.597.182-2.405 3.941.208 3.909z"/><path d="M198.974.042c-7.756 0-14.043 6.287-14.043 14.043 0 7.756 6.287 14.041 14.043 14.041 7.755 0 14.042-6.285 14.042-14.041S206.729.042 198.974.042zm-5.127 8.561c.436-2.875 3.213-4.307 5.565-3.905 2.771.474 4.278 3.021 3.944 5.368-.903 6.357-10.471 4.869-9.509-1.463zm9.737 14.039c-.938.953-1.938.076-2.666-.625-.626-.604-1.378-1.357-2.033-1.871-1.71 1.803-3.099 3.967-4.502 2.77-1.683-1.438 1.621-3.543 2.427-4.783-.84-.188-2.253-.643-2.917-1.148-.667-.508-.79-1.676.016-2.254.966-.694 1.614.07 2.755.439 4.319 1.391 5.991-2.505 7.27-.223 1.09 1.947-2.619 2.809-3.063 3.109 1.782 1.705 4.066 3.211 2.713 4.586z"/><g fill-rule="evenodd" clip-rule="evenodd"><path d="M124.94 16.926a2.831 2.831 0 0 0 2.835-2.864 2.85 2.85 0 0 0-2.869-2.84 2.847 2.847 0 0 0-2.813 2.853 2.83 2.83 0 0 0 2.847 2.851z"/><path d="M125.266 18.688c-1.292.088-2.446-.297-3.405-1.172-1.34-1.224-1.764-2.766-1.433-4.537h-1.197c-.012.089-.025.155-.025.223-.001 1.972-.005 3.941.001 5.912.001.499.201.682.73.683 3.331.005 6.661.005 9.993-.001.565 0 .723-.176.724-.764v-6.061h-1.214c.616 3.283-1.712 5.547-4.174 5.717z"/><path d="M124.93 0c-7.716 0-13.972 6.306-13.972 14.084s6.256 14.084 13.972 14.084 13.972-6.306 13.972-14.084S132.646 0 124.93 0zm7.491 19.694c0 1.129-.702 1.866-1.833 1.87-3.774.012-7.549.012-11.323-.002-1.114-.005-1.818-.719-1.821-1.84-.012-3.761-.011-7.521-.001-11.281.003-1.149.738-1.846 1.897-1.847h11.197c1.155.001 1.883.714 1.884 1.859.005 3.747.005 7.494 0 11.241z"/><path d="M128.422 11.181c.265.005.526.001.788 0 .277 0 .555.002.83 0 .384-.005.601-.203.608-.584a32.77 32.77 0 0 0 0-1.659c-.007-.357-.203-.566-.572-.571a76.547 76.547 0 0 0-1.66 0c-.362.002-.572.187-.578.557a53.65 53.65 0 0 0 .001 1.702c.008.367.224.546.583.555z"/></g><g fill-rule="evenodd" clip-rule="evenodd"><path d="M159.887 11.487c.177-.4.251-.818.254-1.255-.038-1.088-.379-2.047-1.215-2.786-.392-.345-.848-.558-1.383-.51-.692.062-1.125.484-1.393 1.091-.273.62-.312 1.27-.182 1.93.175.895.564 1.67 1.312 2.226.972.721 2.117.41 2.607-.696zm.194 4.969c-.741-.363-1.531-.463-2.342-.359-.83.104-1.582.4-2.2.986-.969.916-.938 2.211.088 3.062.692.576 1.52.768 2.4.777.052 0 .104.002.157 0 .974-.049 1.864-.326 2.582-1.014.599-.574.884-1.266.612-2.096-.213-.651-.701-1.065-1.297-1.356z"/><path d="M161.917.001c-7.717 0-13.973 6.306-13.973 14.084 0 7.777 6.256 14.082 13.973 14.082 7.715 0 13.971-6.305 13.971-14.082 0-7.778-6.256-14.084-13.971-14.084zm-.542 21.016c-.731.482-1.54.756-2.397.883-1.221.182-2.433.15-3.614-.24-.823-.273-1.549-.699-1.975-1.498-.598-1.123-.513-2.904 1.014-3.805.786-.463 1.638-.705 2.53-.814.478-.059.96-.07 1.44-.105.034-.002.067-.006.111-.012-.011-.289-.108-.531-.341-.693-.19-.133-.252-.303-.244-.521.009-.256.002-.51.002-.809-.296 0-.58.021-.859-.004-.754-.066-1.451-.289-2.044-.788-.461-.39-.742-.886-.884-1.465-.193-.789-.188-1.578.069-2.352.292-.877.898-1.493 1.698-1.923.897-.481 1.862-.702 2.877-.705 1.319-.004 2.638-.001 3.957-.001h.146c.008.171-.094.265-.222.303-.277.082-.56.146-.841.207-.254.055-.513.091-.768.144-.061.013-.112.064-.187.109.059.043.088.071.122.088.627.299.977.803 1.081 1.48.099.628.133 1.259.035 1.89-.104.672-.442 1.216-.93 1.672-.267.25-.549.483-.824.725a1.674 1.674 0 0 0-.078.069c-.492.46-.513.895-.025 1.355.412.393.864.742 1.288 1.121.488.438.908.926 1.153 1.549.499 1.261.15 3.188-1.29 4.14zm9.414-11.027l-2.84.008c-.378.001-.329-.033-.329.322-.003.848-.001 1.696 0 2.545v.202h-.6v-.413c.001-.819-.001-1.639.006-2.457.002-.152-.04-.201-.194-.2-.877.006-1.755.003-2.632.002h-.265V9.24h3.081V6.287h.592c.005.085.012.164.012.242 0 .837.003 1.674-.005 2.51-.001.151.039.2.194.199.959-.006 1.918-.003 2.876-.004.034 0 .069-.007.104-.011v.767z"/></g><path fill-rule="evenodd" clip-rule="evenodd" d="M50.958 0c-7.716 0-13.972 6.306-13.972 14.084s6.255 14.084 13.972 14.084c7.715 0 13.972-6.306 13.972-14.084S58.673 0 50.958 0zM57.3 16.842c1.194 1.1 2.027 1.994 2.498 2.686.22.346.291.652.212.919-.079.268-.26.401-.542.401l-3.111.141c-.44.032-.974-.235-1.602-.801s-1.053-1.037-1.272-1.414c-.126-.22-.354-.346-.684-.377-.33-.031-.542.126-.636.472l-.094 1.225c-.031.252-.126.44-.283.565-.157.126-.291.197-.4.213-.11.016-.291.039-.542.07-.817.031-1.532-.008-2.145-.118a4.22 4.22 0 0 1-1.673-.683c-.503-.346-.903-.66-1.202-.943-.298-.282-.73-.738-1.296-1.366-1.539-2.199-2.686-4.101-3.44-5.702-.283-.629-.44-1.163-.472-1.603.126-.126.362-.204.708-.235.346-.032.848-.04 1.508-.024.66.017 1.052.024 1.178.024.314-.032.566.141.754.518.785 1.76 1.555 3.126 2.309 4.101.503.471.833.393.99-.236.063 0 .095-.77.095-2.309.031-.975-.362-1.587-1.178-1.838.188-.503.848-.754 1.979-.754.283 0 .628.015 1.037.047.408.031.628.047.659.047.943 0 1.415.377 1.415 1.131 0 .095-.016.323-.047.684a21.46 21.46 0 0 0-.094 2.074c0 .36.047.667.142.919.094.251.22.408.377.471.172-.125.338-.243.494-.354.158-.109.323-.29.496-.542.173-.251.306-.439.4-.565.094-.126.235-.361.424-.707.188-.346.298-.565.33-.66.031-.094.141-.337.33-.729l.283-.59.07-.142c.125-.282.228-.447.307-.494s.275-.07.589-.07h2.922c.346 0 .55.008.613.023s.158.086.283.212c.22.282.024.896-.589 1.838s-1.202 1.728-1.768 2.356c-.787.878-.897 1.584-.332 2.119z"/></g></svg>